<?xml version="1.0" standalone="no"?>
<!DOCTYPE svg PUBLIC "-//W3C//DTD SVG 20010904//EN"
 "http://www.w3.org/TR/2001/REC-SVG-20010904/DTD/svg10.dtd">
<svg version="1.0" xmlns="http://www.w3.org/2000/svg"
 viewBox="0 0 128.000000 128.000000"
 preserveAspectRatio="xMidYMid meet">

<g transform="translate(0.000000,128.000000) scale(0.100000,-0.100000)"
 stroke="none">
<path d="M980 1260 c-33 -16 -153 -129 -451 -428 l-407 -407 -63 -192 -64
-193 23 -22 22 -23 193 64 192 63 403 402 c450 448 460 460 449 562 -11 107
-88 182 -194 190 -45 4 -68 0 -103 -16z m146 -99 c57 -35 70 -125 23 -167 -20
-18 -21 -17 -96 58 -68 68 -75 79 -63 93 31 38 89 44 136 16z m-398 -588
l-333 -333 -77 77 -78 78 332 332 333 333 77 -77 78 -78 -332 -332z m-478
-328 c29 -30 52 -56 49 -58 -7 -7 -162 -57 -165 -54 -5 5 50 167 56 167 3 0
30 -25 60 -55z"/>
</g>
</svg>
