<?xml version="1.0" standalone="no"?>
<!DOCTYPE svg PUBLIC "-//W3C//DTD SVG 20010904//EN"
 "http://www.w3.org/TR/2001/REC-SVG-20010904/DTD/svg10.dtd">
<svg version="1.0" xmlns="http://www.w3.org/2000/svg"
 viewBox="0 0 128.000000 128.000000"
 preserveAspectRatio="xMidYMid meet">

<g transform="translate(0.000000,128.000000) scale(0.100000,-0.100000)"
 stroke="none">
<path d="M502 1265 c-303 -69 -517 -352 -499 -660 10 -164 70 -298 187 -415
76 -75 148 -121 252 -158 63 -22 89 -26 193 -27 97 0 133 4 190 22 98 31 189
87 265 163 75 76 121 148 158 252 23 64 26 88 26 198 0 110 -3 134 -26 198
-37 104 -83 176 -158 252 -75 75 -167 132 -260 161 -85 27 -242 34 -328 14z
m283 -80 c92 -24 174 -73 250 -150 115 -115 165 -234 165 -395 0 -161 -50
-280 -165 -395 -115 -115 -234 -165 -395 -165 -161 0 -280 50 -395 165 -115
115 -165 234 -165 395 0 161 50 280 165 395 75 75 157 125 246 149 72 20 220
20 294 1z"/>
<path d="M521 1115 c-231 -65 -386 -280 -368 -510 3 -38 15 -95 26 -126 24
-64 75 -139 94 -139 16 0 667 651 667 667 0 19 -75 70 -139 94 -74 28 -206 35
-280 14z m274 -93 l49 -23 -279 -279 c-153 -153 -282 -277 -286 -274 -4 2 -17
30 -29 62 -31 82 -25 223 13 302 50 104 135 182 240 221 74 27 222 23 292 -9z"/>
<path d="M667 612 c-180 -180 -327 -333 -327 -339 0 -19 75 -70 139 -94 319
-120 674 152 648 496 -3 39 -15 95 -26 126 -24 64 -75 139 -94 139 -6 0 -159
-147 -340 -328z m363 160 c32 -84 25 -223 -15 -307 -37 -77 -123 -163 -200
-201 -55 -27 -69 -29 -170 -29 -93 0 -117 3 -160 23 l-49 23 279 279 c153 153
282 277 286 274 4 -2 17 -30 29 -62z"/>
</g>
</svg>
